<svg width="495" height="263" fill="none" xmlns="http://www.w3.org/2000/svg"><g clip-path="url(#clip0)"><path opacity=".1" d="M457.048 207.968a524.881 524.881 0 01-1.65 3.512c-.856 1.794-1.7 3.553-2.534 5.277-.37.764-.741 1.514-1.102 2.264a704.305 704.305 0 01-11.148 21.778 34.755 34.755 0 01-12.646 13.332 34.848 34.848 0 01-17.686 5.035l-72.088.783h-.761l-6.179.066-5.286.057-16.21.176h-.656l-8.252.09h-.252l-50.864.551-45.401.474-5.281.057-32.8.356h-.038l-21.272.228h-.229l-67.263.726-20.122.218a41.907 41.907 0 01-12.678-1.813 41.06 41.06 0 01-18.581-11.746c-8.642-9.506-14.94-20.597-19.171-32.632a111.6 111.6 0 01-1.712-5.277C-9.46 162.052 8.395 98.282 40.53 55.607a163.87 163.87 0 014.107-5.22l.033-.038c9.883-12.111 20.964-22.23 32.767-29.424 20.916-12.771 44.089-16.369 66.883-5.648 19.285 9.074 37.292 13.34 54.747 14.499 1.763.114 3.527.2 5.281.251 40.04 1.258 77.564-13.146 121.63-22.443 1.754-.37 3.513-.735 5.286-1.082 31.435-6.245 66.308-9.539 107.778-2.615a90.04 90.04 0 0112.721 3.038 82.172 82.172 0 015.286 1.898c19.793 8.04 30.589 22.894 35.176 41.507.434 1.727.81 3.485 1.127 5.273 8.133 44.772-15.687 108.281-36.303 152.365z" fill="#6C63FF"/><g opacity=".1" fill="#6C63FF"><path opacity=".1" d="M77.436 20.924v241.858L57.314 263a41.939 41.939 0 01-12.678-1.813V50.349h.033c9.883-12.126 20.964-22.244 32.767-29.425z"/><path opacity=".1" d="M493.374 55.607H40.529a164.267 164.267 0 014.107-5.22v-.038h447.612c.434 1.718.809 3.47 1.126 5.258z"/><path opacity=".1" d="M457.047 8.827v202.647h-1.649c-.856 1.794-1.7 3.554-2.534 5.278-.371.764-.741 1.514-1.103 2.264V6.91a74.834 74.834 0 015.286 1.917zM331.263 6.488v253.546l-5.286.057V7.57c1.754-.37 3.513-.736 5.286-1.082zM204.347 30.013V261.41l-5.281.057V29.761c1.763.114 3.527.18 5.281.252z"/><path opacity=".1" d="M455.398 211.479c-.856 1.794-1.7 3.553-2.534 5.278H6.897a111.616 111.616 0 01-1.71-5.278h450.211z"/></g><path d="M109.618 126.159h-9.032v27.364h9.032v-27.364zm243.065-1.424h-9.032v28.949h9.032v-28.949z" fill="#3F3D56"/><path d="M410.282 253.262v6.169l-72.217.665-.77.014-27.447.251-.656.01-8.342.071h-.248l-50.854.47-83.477.773h-.071l-21.225.2-.228.004-94.312.864v-7.119l22.176-13.288 44.494-.37.95-.005.314-.005.951-.014 21.362-.175.956-.005.304-.005.951-.005 6.85-.057.18-.004 16.899-.143h.138l131.864-1.11 3.228-.024h.323l2.463-.024 17.897-.147.951-.014.879-.01h.456l5.567-.042 1.103-.014 1.478-.01 4.635-.043 7.354-.061.95-.01 1.655-.009h.309l35.514-.304 26.696 13.526z" fill="#65617D"/><path opacity=".2" d="M410.282 253.262v6.169l-72.217.665-.77.014-27.447.251-.656.01-8.342.071h-.248l-50.854.47-83.477.773h-.071l-21.225.2-.228.004-94.312.864v-7.119l22.176-13.288 44.494-.37.95-.005.314-.005.951-.014 21.362-.175.956-.005.304-.005.951-.005 6.85-.057.18-.004 16.899-.143h.138l131.864-1.11 3.228-.024h.323l2.463-.024 17.897-.147.951-.014.879-.01h.456l5.567-.042 1.103-.014 1.478-.01 4.635-.043 7.354-.061.95-.01 1.655-.009h.309l35.514-.304 26.696 13.526z" fill="#000"/><path d="M140.754 229.537v11.623a2.906 2.906 0 01-1.664 2.629 2.863 2.863 0 01-1.189.285l-16.59.351a2.856 2.856 0 01-1.283-.271 2.905 2.905 0 01-1.697-2.643v-11.974h22.423z" fill="#3F3D56"/><path opacity=".1" d="M140.754 229.537v11.623a2.906 2.906 0 01-1.664 2.629 2.863 2.863 0 01-1.189.285l-16.59.351a2.856 2.856 0 01-1.283-.271 2.905 2.905 0 01-1.697-2.643v-11.974h22.423z" fill="#000"/><path d="M141.704 229.537v11.623a2.905 2.905 0 01-1.663 2.629 2.867 2.867 0 01-1.189.285l-16.59.351a2.856 2.856 0 01-1.283-.271 2.9 2.9 0 01-1.697-2.643v-11.974h22.422zm204.404 0h-22.422v14.949h22.422v-14.949z" fill="#3F3D56"/><path opacity=".1" d="M346.108 229.537h-22.422v14.949h22.422v-14.949z" fill="#000"/><path d="M345.158 229.537h-22.423v14.949h22.423v-14.949z" fill="#3F3D56"/><path opacity=".1" d="M109.618 126.154v2.719l-9.032-.232v-2.487h9.032z" fill="#000"/><path d="M169.066 49.547l-10.853 77.831a2.038 2.038 0 01-2.077 1.761l-86.895-2.25-1.65-.042a2.053 2.053 0 01-1.506-.715 2.04 2.04 0 01-.471-1.597l12.183-81.476a2.04 2.04 0 012.158-1.723l87.209 5.895a2.043 2.043 0 011.846 1.482c.076.271.095.555.056.834z" fill="#65617D"/><path d="M83.63 47.06l-9.189 71.818 79.86 2.53 9.821-69.29L83.63 47.06z" fill="#6C63FF"/><path d="M277.581 45.95h-92.225a2.531 2.531 0 00-2.533 2.529v77.2a2.532 2.532 0 002.533 2.53h92.225a2.532 2.532 0 002.533-2.53v-77.2a2.531 2.531 0 00-2.533-2.53z" fill="#65617D"/><path d="M275.831 51.488h-88.416v68.496h88.416V51.488z" fill="#6C63FF"/><path opacity=".1" d="M352.683 124.73v1.799l-9.032.185v-1.984h9.032z" fill="#000"/><path d="M393.435 123.211a1.448 1.448 0 01-.381 1.082 1.462 1.462 0 01-1.045.475l-88.987 1.837a1.468 1.468 0 01-1.488-1.324l-7.649-79.389a1.481 1.481 0 01.063-.584 1.471 1.471 0 011.325-1.015l88.313-4.385.95-.048a1.46 1.46 0 011.531 1.329l7.368 82.022z" fill="#65617D"/><path d="M298.967 48.958L379.621 45l6.812 72.137-80.017 1.898-7.449-70.077z" fill="#6C63FF"/><path opacity=".1" d="M393.435 123.211a1.448 1.448 0 01-.381 1.082 1.462 1.462 0 01-1.045.475l-8.423-84.86.95-.048a1.46 1.46 0 011.531 1.329l7.368 82.022zM79.97 41.331L69.24 126.89l-1.649-.042a2.053 2.053 0 01-1.506-.715 2.04 2.04 0 01-.471-1.596L77.797 43.06a2.04 2.04 0 012.172-1.727zm29.648 104.086h-9.032v8.106h9.032v-8.106zm32.086 84.115v2.359l-22.422.598v-2.957h22.422z" fill="#000"/><path d="M181.278 148.241v79.825a1.898 1.898 0 01-1.83 1.875l-91.103 2.42h-.023a1.903 1.903 0 01-1.878-1.875v-82.245a1.898 1.898 0 011.878-1.875H179.4a1.904 1.904 0 011.878 1.875z" fill="#65617D"/><path opacity=".1" d="M88.345 146.366v85.995h-.023a1.903 1.903 0 01-1.878-1.875v-82.245a1.898 1.898 0 011.878-1.875h.023z" fill="#000"/><path d="M92.505 151.463h84.376v70.357l-84.376 1.899v-72.256z" fill="#D4DFEC"/><path opacity=".1" d="M352.683 145.417h-9.032v8.267h9.032v-8.267zm-7.525 84.115v3.042l-22.423-.598v-2.444h22.423z" fill="#000"/><path d="M374.749 148.241v82.245a1.9 1.9 0 01-1.902 1.875l-91.121-2.42a1.897 1.897 0 01-1.83-1.875v-79.825a1.9 1.9 0 011.877-1.875h91.079c.499.002.978.199 1.333.55.355.35.557.826.564 1.325z" fill="#65617D"/><path opacity=".1" d="M374.749 148.241v82.245a1.9 1.9 0 01-1.902 1.875v-85.995a1.901 1.901 0 011.902 1.875z" fill="#000"/><path d="M368.688 151.463h-84.376v70.357l84.376 1.899v-72.256z" fill="#D4DFEC"/><path d="M277.538 148.241v79.825a1.898 1.898 0 01-1.83 1.875l-91.103 2.42a1.903 1.903 0 01-1.901-1.875v-82.245a1.896 1.896 0 011.878-1.875h91.078a1.904 1.904 0 011.878 1.875z" fill="#65617D"/><path d="M188.765 151.463h84.376v70.357l-84.376 1.899v-72.256z" fill="#D4DFEC"/><path opacity=".1" d="M410.282 253.262v6.169l-72.217.665-.77.014-27.447.251-.656.01-8.342.071h-.248l-50.854.47-83.477.773h-.071l-21.225.2-.228.005-94.312.863v-7.118l96.265-.632h.228l19.485-.133h.091l134.564-.887h.138l.081-.005h.223l2.277-.014h.694l35.41-.237 2.091-.01.466-.005 67.834-.45z" fill="#000"/><path d="M231.623 153.523c13.476 0 24.4-10.906 24.4-24.36 0-13.454-10.924-24.361-24.4-24.361-13.476 0-24.4 10.907-24.4 24.361s10.924 24.36 24.4 24.36z" fill="#FBBEBE"/><path d="M256.028 178.994s-47.298 5.695-42.782 0c1.635-2.06 2.087-8.163 1.996-15.116a175.683 175.683 0 00-.214-6.478c-.523-10.44-1.782-20.644-1.782-20.644s41.356-19.458 36.602-4.034c-1.901 6.231-1.278 14.983.167 23.198.423 2.396.912 4.746 1.426 6.976a163.395 163.395 0 004.587 16.098z" fill="#FBBEBE"/><path opacity=".1" d="M256.028 178.994s-47.298 5.695-42.782 0c1.635-2.06 2.087-8.163 1.996-15.116 7.211-3.075 16.386-.783 16.386-.783 9.659-1.922 15.853-1.547 19.813-.199a163.395 163.395 0 004.587 16.098z" fill="#000"/><path d="M166.252 262.222v-.399l83.482-.906 50.864-.475h.142l-.052.702.071-.702h.09v-.081l.652-6.383.247-2.415.076-.755.066-.631 2.938-9.781 2.938-9.767 2.472-8.225 3.774-12.567s-2.139-4.983-3.327-6.407c-1.189-1.423-2.377-11.152-2.377-11.152s-10.144-9.649-14.579-10.759c-1.859-.475-5.529-1.106-9.427-1.899a132.446 132.446 0 01-4.397-.949 96.03 96.03 0 01-2.377-.574 41.973 41.973 0 01-4.397-1.357 9.878 9.878 0 01-2.139-1.087c-3.494-2.558-12.25-2.848-12.587-2.848a.182.182 0 010-.033v-.043a4.971 4.971 0 000-.598c0-.189 0-.412-.043-.664 0-.076 0-.157-.033-.237a6.96 6.96 0 00-.095-.541 8.12 8.12 0 00-.652-1.908c-.033-.076-.076-.157-.114-.233a8.64 8.64 0 00-.808-1.248c-.062-.08-.128-.166-.2-.247a9.268 9.268 0 00-1.292-1.252c-.129-.1-.262-.205-.4-.299a2.117 2.117 0 00-.242-.171l-.423-.276-.395-.227c-.347-.19-.713-.375-1.112-.551-.124-.057-.257-.109-.39-.161a68.497 68.497 0 00-.518-.2h-.029l-.356-.142c-.271-.09-.547-.171-.837-.251l-.442-.114-.475-.11-.476-.099a20.805 20.805 0 00-1.516-.247l-.542-.066-.556-.057-.575-.048-.818-.047-.951-.033a59.29 59.29 0 00-12.473 1.324 34.404 34.404 0 00-8.68-.798h-.414l-.475.029h-.304l-.613.057c-.205 0-.414.042-.618.071-.205.028-.419.052-.623.085l-.314.053c-.309.052-.622.109-.95.175a3.84 3.84 0 00-.314.071c-.414.09-.827.2-1.236.323a9.452 9.452 0 00-.613.195c-.105.028-.205.066-.305.104l-.304.109-.299.119-.357.142c-.18.076-.356.157-.532.242-.1.043-.2.09-.295.143-.095.052-.195.095-.285.147a13.197 13.197 0 00-2.952 2.078l-.243.233-.237.242a5.558 5.558 0 00-.233.252c-.31.338-.599.694-.865 1.067-.076.1-.148.2-.219.304-.302.444-.575.907-.818 1.386-.061.114-.118.232-.175.346a15.543 15.543 0 00-.951 2.492c-.089.316-.17.633-.243.949 0 0-10.063 4.433-18.41 7.641-2.22.854-4.312 1.628-6.061 2.211-.509.171-.984.328-1.426.475-.959.346-1.957.576-2.971.683a9.465 9.465 0 00-1.426.133c-3.836.622-10.411 3.322-11.128 6.032a1.735 1.735 0 00-.048.665v.052c.475 3.322-2.852 2.847-2.852 2.847s-1.188 8.78-2.852 11.153c-1.203 1.709-2.025 5.519-2.13 8.395-.06.896.011 1.796.209 2.672v.067c.191.636-.266 2.373-1.041 4.599-.841 2.444-2.067 5.481-3.246 8.347-1.778 4.329-3.451 8.258-3.556 9.122-.043.384-.166 1.072-.338 1.96-.694 3.616-2.234 10.503-2.994 13.288a507.737 507.737 0 01-1.954 6.882c0 .057-.033.114-.048.166l21.311-.209v.399h.066-.028z" fill="#6C63FF"/><path opacity=".1" d="M174.029 206.283s27.095 14 36.84 12.339l-36.84-12.339zm55.141-5.695s26.383 8.542 35.177 9.728c8.794 1.187-35.177-9.728-35.177-9.728zm29.263-27.488c-13.785 2.534-39.74 1.988-50.958 1.604 4.112-14.712 24.162-9.71 24.162-9.71 24.819-4.945 26.72 5.315 26.796 8.106z" fill="#000"/><path d="M258.433 172.15c-13.785 2.535-39.74 1.989-50.958 1.605 4.112-14.713 24.162-9.71 24.162-9.71 24.819-4.946 26.72 5.315 26.796 8.105z" fill="#6C63FF"/><path d="M331.61 237.012s16.238-2.492 16.557 4.627c.318 7.119-8.281 12.092-8.281 12.092l-8.276-16.719z" fill="#FBBEBE"/><path opacity=".1" d="M250.015 155.92c-.699.311-1.413.587-2.139.826-5.125 1.765-10.292 3.545-15.687 4.19-5.396.646-11.057.076-15.763-2.61A13.64 13.64 0 01215 157.4c-.523-10.44-1.783-20.644-1.783-20.644s41.356-19.458 36.603-4.034c-1.892 6.231-1.25 14.983.195 23.198z" fill="#000"/><path d="M224.93 91.087a4.508 4.508 0 01-3.955-.83l.989 1.37a4.035 4.035 0 01-3.223-1.067 16.114 16.114 0 00.152 3.678 6.908 6.908 0 01-4.544-1.424 2.092 2.092 0 001.254 2.046 6.823 6.823 0 00-4.666 1.147 6.802 6.802 0 00-2.749 3.936l2.481.227a8.78 8.78 0 00-4.962 3.023c-.761.95-1.341 2.165-1.008 3.323.332 1.158 1.939 1.898 2.814 1.072a13.262 13.262 0 00-2.65 5.087 13.256 13.256 0 00-.25 5.729c.226.812.3 1.658.219 2.496-.157.783-.651 1.462-.899 2.226-.475 1.386-.023 2.89.4 4.271l2.229 7.318c.808 2.644 1.612 5.292 2.667 7.85a38.966 38.966 0 011.901 4.988c.599 2.297.623 4.812 1.902 6.82a9.473 9.473 0 003.413 3.004c4.701 2.686 10.382 3.255 15.763 2.61 5.381-.646 10.543-2.425 15.663-4.191a14.772 14.772 0 003.251-1.423c3.542-2.316 4.331-7.053 4.991-11.224.737-4.651 1.721-9.293 3.466-13.668 1.036-2.606 2.377-5.249 2.148-8.04-.29-3.706-3.227-6.71-3.955-10.355a9.003 9.003 0 01.034-3.688 8.36 8.36 0 00.375-2.23c-.081-1.528-1.335-2.705-2.514-3.688a116.028 116.028 0 00-7.92-6.046c-.138-.95 1.155-1.357 1.74-2.107.827-1.058-.029-2.739-1.283-3.232-1.255-.494-2.662-.17-3.97.157a3.128 3.128 0 00-3.803-3.445 3.136 3.136 0 00-1.687 1.02 4.842 4.842 0 00-4.003-2.886c-3.151-.247-3.213 2.16-5.229 3.483-2.015 1.325-3.679-.422-5.229-1.694a4.408 4.408 0 00.647 4.357z" fill="#3F3D56"/><path d="M343.651 251.249s-.423 1.006-1.203 2.463a32.759 32.759 0 01-4.278 6.251l-.129.137h-.77l-27.447.252h-.656l-.081-.095-5.324-6.307-2.006-2.378-.08-.1-.172-.199-.095-.114-.123-.147-3.903-4.622 1.426-5.933 2.429-9.994.062-.242.475-1.899.338-1.424 1.131-4.641 3.879-15.97 6.893 3.56 7.268 12.813 3.903 6.882h2.139c.404 0 1.331.778 2.263 1.675.332.318.665.655.95.949.846.874 1.517 1.623 1.517 1.623s3.465.076 4.397 2.8c.048.132.088.267.119.404a19.072 19.072 0 001.202 3.113c.613 1.334 1.384 2.848 2.163 4.362a244.563 244.563 0 003.465 6.378l.067.119.181.284z" fill="#6C63FF"/><path opacity=".1" d="M302.817 229.822l-.047.679v.047l-.081 1.092-.632 8.784-.765 10.583-.219 2.981-.475 6.378v.081l-50.864.474-83.468.902v.399h-.067v-.532l.214-6.815.409-13.317.352-11.29.033-1.125a4.995 4.995 0 013.423-4.589 5.015 5.015 0 012.006-.237c2.244.19 5.157.422 8.642.669l1.426.104c20.122 1.396 57.309 3.199 94.834.949.789-.042 1.583-.09 2.377-.147a446.366 446.366 0 0017.388-1.423 5.004 5.004 0 015.514 5.329v.024z" fill="#000"/><path d="M166.252 262.222v-.399l83.482-.906 50.863-.475h.143v-.081l.475-6.378.205-2.848.779-10.73.614-8.495v-.209c.028-.391.01-.785-.053-1.172a.124.124 0 000-.047 4.93 4.93 0 00-.95-2.203 5.017 5.017 0 00-4.478-1.898 446.416 446.416 0 01-17.389 1.424c-.794.057-1.588.104-2.377.147-37.524 2.226-74.712.422-94.834-.949l-1.426-.105a551.879 551.879 0 01-8.642-.669 5.008 5.008 0 00-5.428 4.827l-.323 10.517-.443 13.321-.209 6.815v.532l-.009-.019z" fill="#3F3D56"/><path opacity=".1" d="M302.96 233.149l-.585 7.275-.87 10.844-.218 2.715-.476 6.079-.028.304v.081l-.071.702.052-.702h-.138l-50.863.474-83.497.902v-.133l.233-6.815.475-13.317.305-8.851a3.022 3.022 0 013.251-2.918c.998.08 2.225.175 3.656.28 2.324.17 5.19.37 8.527.579 6.18.389 13.933.806 22.818 1.148 24.718.949 58.088 1.267 89.785-1.504 1.426-.124 2.9-.261 4.34-.399a2.983 2.983 0 011.655.313c.144.072.281.158.408.257.414.299.742.701.951 1.167a1.7 1.7 0 01.119.29c.143.393.201.812.171 1.229zm-161.256 6.497v1.514a2.905 2.905 0 01-1.663 2.629l-19.062.365a2.9 2.9 0 01-1.697-2.643v-1.424l22.422-.441z" fill="#000"/><path d="M141.942 244.681l-24.838.475v-4.115l24.838-.475v4.115z" fill="#3F3D56"/><path opacity=".1" d="M141.942 244.681l-24.838.475v-4.115l24.838-.475v4.115z" fill="#000"/><path d="M142.893 244.681l-24.838.475v-4.115l24.838-.475v4.115z" fill="#3F3D56"/><path opacity=".1" d="M225.125 89.53a4.635 4.635 0 01-.899-2.06 4.511 4.511 0 00.2 2.184c.236-.022.47-.063.699-.124zm-6.037 3.151a16.412 16.412 0 01-.176-1.755v1.76l.176-.005zm38.742 15.837c.026-.423.083-.843.171-1.257a8.547 8.547 0 00.38-2.226 2.937 2.937 0 00-.076-.503c-.081.436-.209.873-.304 1.305a9.042 9.042 0 00-.171 2.681zm-9.888-14.664l.518.375a9.356 9.356 0 001.222-1.054 1.746 1.746 0 00.181-1.727 1.43 1.43 0 01-.181.303c-.585.75-1.878 1.163-1.74 2.103zm-39.06 4.566a5.896 5.896 0 00-.414 1.081 8.65 8.65 0 012.377-.897l-1.963-.185zm6.555-5.164a7.098 7.098 0 01-.894-.584c-.012.188.003.376.043.56.284-.014.568-.006.851.024zm46.476 27.962c-.195 2.302-1.269 4.518-2.139 6.701-1.745 4.376-2.729 9.017-3.466 13.673-.66 4.172-1.426 8.908-4.991 11.219a14.257 14.257 0 01-3.247 1.424c-5.124 1.77-10.291 3.545-15.686 4.191-5.396.645-11.057.08-15.763-2.606a9.5 9.5 0 01-3.413-3.004c-1.27-2.008-1.293-4.523-1.902-6.82a39.02 39.02 0 00-1.901-4.992c-1.051-2.554-1.859-5.221-2.662-7.845-.745-2.44-1.488-4.881-2.23-7.323a13.752 13.752 0 01-.542-2.254c-.185 1.215.176 2.486.542 3.678.742 2.445 1.485 4.886 2.23 7.322.803 2.644 1.611 5.292 2.662 7.845a39.035 39.035 0 011.901 4.993c.599 2.297.623 4.812 1.902 6.82a9.5 9.5 0 003.413 3.004c4.706 2.686 10.382 3.251 15.763 2.605 5.381-.645 10.543-2.42 15.686-4.19a14.257 14.257 0 003.247-1.424c3.542-2.311 4.331-7.048 4.991-11.219.737-4.656 1.721-9.297 3.466-13.673 1.036-2.601 2.377-5.244 2.148-8.039 0-.029-.009-.057-.009-.086zm-56.896-1.836v-.053a6.63 6.63 0 00-.218-2.491 12.64 12.64 0 01-.186-1.576c-.055 1.004.008 2.01.186 3 .076.37.161.745.218 1.12zm1.45-11.609c.366-.613.781-1.195 1.241-1.742-.87.831-2.477.091-2.814-1.063a2.75 2.75 0 000 1.424 2.083 2.083 0 001.573 1.381zm118.726 121.764s1.506 5.458 0 10.204c-1.507 4.745 0-10.204 0-10.204zm6.417 5.567s.632 6.929-.794 8.158c-1.426 1.229.794-8.158.794-8.158z" fill="#000"/><path d="M94.592 162.716l48.301-.475m-48.301 6.393l48.301-.47m-48.301 6.393l48.301-.475" stroke="#6C63FF" stroke-width="2" stroke-miterlimit="10"/></g><defs><clipPath id="clip0"><path fill="#fff" d="M0 0h495v263H0z"/></clipPath></defs></svg>