<svg width="495" height="263" viewBox="0 0 495 263" fill="none" xmlns="http://www.w3.org/2000/svg">
<g clip-path="url(#clip0)">
<path opacity="0.1" d="M457.048 207.968C456.496 209.154 455.946 210.325 455.398 211.48C454.542 213.274 453.698 215.033 452.864 216.757C452.494 217.521 452.123 218.271 451.762 219.021C447.673 227.359 443.856 234.734 440.614 240.799C437.673 246.295 433.305 250.9 427.968 254.131C422.632 257.362 416.523 259.101 410.282 259.166L338.194 259.949H337.433L331.254 260.015L325.968 260.072L309.758 260.248H309.102L300.85 260.338H300.598L249.734 260.889L204.333 261.363L199.052 261.42L166.252 261.776H166.214L144.942 262.004H144.713L77.4502 262.73L57.3283 262.948C53.0343 262.997 48.7583 262.385 44.6505 261.135C37.5021 258.98 31.0778 254.919 26.0688 249.389C17.4267 239.883 11.1282 228.792 6.89755 216.757C6.28593 215.02 5.7155 213.261 5.18626 211.48C-9.45952 162.052 8.39494 98.2819 40.5292 55.6074C41.876 53.8229 43.245 52.0828 44.6363 50.3869L44.6695 50.349C54.5522 38.2376 65.6328 28.1195 77.436 20.9248C98.3517 8.15375 121.525 4.5564 144.319 15.2772C163.604 24.3513 181.611 28.6178 199.066 29.7758C200.829 29.8897 202.593 29.9751 204.347 30.0273C244.387 31.2849 281.911 16.8813 325.977 7.58425C327.731 7.21407 329.49 6.84864 331.263 6.50219C362.698 0.256675 397.571 -3.03693 439.041 3.88724C443.349 4.58994 447.601 5.60507 451.762 6.92457C453.59 7.51306 455.352 8.14584 457.048 8.82291C476.841 16.8624 487.637 31.7168 492.224 50.33C492.658 52.0575 493.034 53.815 493.351 55.6026C501.484 100.375 477.664 163.884 457.048 207.968Z" fill="#6C63FF"/>
<g opacity="0.1">
<path opacity="0.1" d="M77.4359 20.9244V262.782L57.3139 263C53.0199 263.048 48.7439 262.437 44.6361 261.187V50.3486H44.6694C54.5521 38.2229 65.6327 28.1048 77.4359 20.9244Z" fill="#6C63FF"/>
<path opacity="0.1" d="M493.374 55.6069H40.529C41.8759 53.8225 43.2449 52.0824 44.6361 50.3865V50.3486H492.248C492.682 52.0666 493.057 53.8194 493.374 55.6069Z" fill="#6C63FF"/>
<path opacity="0.1" d="M457.047 8.82726V211.474H455.398C454.542 213.268 453.698 215.028 452.864 216.752C452.493 217.516 452.123 218.266 451.761 219.016V6.90994C453.59 7.49843 455.352 8.13753 457.047 8.82726Z" fill="#6C63FF"/>
<path opacity="0.1" d="M331.263 6.48755V260.034L325.977 260.091V7.5696C327.731 7.19942 329.49 6.83399 331.263 6.48755Z" fill="#6C63FF"/>
<path opacity="0.1" d="M204.347 30.0126V261.41L199.066 261.467V29.7611C200.829 29.875 202.593 29.9414 204.347 30.0126Z" fill="#6C63FF"/>
<path opacity="0.1" d="M455.398 211.479C454.542 213.273 453.698 215.032 452.864 216.757H6.89745C6.28582 215.02 5.71539 213.26 5.18616 211.479H455.398Z" fill="#6C63FF"/>
</g>
<path d="M109.618 126.159H100.586V153.523H109.618V126.159Z" fill="#3F3D56"/>
<path d="M352.683 124.735H343.651V153.684H352.683V124.735Z" fill="#3F3D56"/>
<path d="M410.282 253.262V259.431L338.065 260.096L337.295 260.11L309.848 260.361L309.192 260.371L300.85 260.442H300.602L249.748 260.912L166.271 261.685H166.2L144.975 261.885L144.747 261.889L50.4355 262.753V255.634L72.611 242.346L117.105 241.976L118.055 241.971L118.369 241.966L119.32 241.952L140.682 241.777L141.638 241.772L141.942 241.767L142.893 241.762L149.743 241.705L149.923 241.701L166.822 241.558H166.96L298.824 240.448L302.052 240.424H302.375L304.838 240.4L322.735 240.253L323.686 240.239L324.565 240.229H325.021L330.588 240.187L331.691 240.173L333.169 240.163L337.804 240.12L345.158 240.059L346.108 240.049L347.763 240.04H348.072L383.586 239.736L410.282 253.262Z" fill="#65617D"/>
<path opacity="0.2" d="M410.282 253.262V259.431L338.065 260.096L337.295 260.11L309.848 260.361L309.192 260.371L300.85 260.442H300.602L249.748 260.912L166.271 261.685H166.2L144.975 261.885L144.747 261.889L50.4355 262.753V255.634L72.611 242.346L117.105 241.976L118.055 241.971L118.369 241.966L119.32 241.952L140.682 241.777L141.638 241.772L141.942 241.767L142.893 241.762L149.743 241.705L149.923 241.701L166.822 241.558H166.96L298.824 240.448L302.052 240.424H302.375L304.838 240.4L322.735 240.253L323.686 240.239L324.565 240.229H325.021L330.588 240.187L331.691 240.173L333.169 240.163L337.804 240.12L345.158 240.059L346.108 240.049L347.763 240.04H348.072L383.586 239.736L410.282 253.262Z" fill="black"/>
<path d="M140.754 229.537V241.16C140.754 241.71 140.598 242.249 140.303 242.715C140.009 243.18 139.588 243.553 139.09 243.789C138.719 243.968 138.314 244.066 137.901 244.074L121.311 244.425C120.868 244.435 120.429 244.343 120.028 244.154C119.521 243.922 119.092 243.55 118.791 243.081C118.49 242.613 118.33 242.067 118.331 241.511V229.537H140.754Z" fill="#3F3D56"/>
<path opacity="0.1" d="M140.754 229.537V241.16C140.754 241.71 140.598 242.249 140.303 242.715C140.009 243.18 139.588 243.553 139.09 243.789C138.719 243.968 138.314 244.066 137.901 244.074L121.311 244.425C120.868 244.435 120.429 244.343 120.028 244.154C119.521 243.922 119.092 243.55 118.791 243.081C118.49 242.613 118.33 242.067 118.331 241.511V229.537H140.754Z" fill="black"/>
<path d="M141.704 229.537V241.16C141.705 241.71 141.548 242.249 141.254 242.715C140.959 243.18 140.539 243.553 140.041 243.789C139.67 243.968 139.264 244.066 138.852 244.074L122.262 244.425C121.819 244.435 121.38 244.343 120.979 244.154C120.472 243.922 120.042 243.55 119.742 243.081C119.441 242.613 119.281 242.067 119.282 241.511V229.537H141.704Z" fill="#3F3D56"/>
<path d="M346.108 229.537H323.686V244.486H346.108V229.537Z" fill="#3F3D56"/>
<path opacity="0.1" d="M346.108 229.537H323.686V244.486H346.108V229.537Z" fill="black"/>
<path d="M345.158 229.537H322.735V244.486H345.158V229.537Z" fill="#3F3D56"/>
<path opacity="0.1" d="M109.618 126.154V128.873L100.586 128.641V126.154H109.618Z" fill="black"/>
<path d="M169.066 49.5465L158.213 127.378C158.145 127.875 157.895 128.33 157.512 128.655C157.128 128.979 156.639 129.152 156.136 129.139L69.2407 126.889L67.5912 126.847C67.304 126.84 67.0215 126.773 66.762 126.65C66.5026 126.526 66.272 126.35 66.0854 126.132C65.8988 125.914 65.7604 125.659 65.6791 125.384C65.5978 125.109 65.5755 124.82 65.6137 124.535L77.7971 43.059C77.8757 42.5543 78.1409 42.0973 78.5405 41.7784C78.94 41.4594 79.4448 41.3017 79.9552 41.3362L167.164 47.2305C167.446 47.2468 167.721 47.3212 167.972 47.4488C168.223 47.5765 168.445 47.7548 168.624 47.9724C168.802 48.1901 168.934 48.4423 169.01 48.7132C169.086 48.9841 169.105 49.2679 169.066 49.5465Z" fill="#65617D"/>
<path d="M83.6298 47.0597L74.4411 118.878L154.301 121.408L164.122 52.1188L83.6298 47.0597Z" fill="#6C63FF"/>
<path d="M277.581 45.9492H185.356C183.957 45.9492 182.823 47.0817 182.823 48.4787V125.679C182.823 127.076 183.957 128.209 185.356 128.209H277.581C278.98 128.209 280.114 127.076 280.114 125.679V48.4787C280.114 47.0817 278.98 45.9492 277.581 45.9492Z" fill="#65617D"/>
<path d="M275.831 51.4876H187.415V119.984H275.831V51.4876Z" fill="#6C63FF"/>
<path opacity="0.1" d="M352.683 124.73V126.529L343.651 126.714V124.73H352.683Z" fill="black"/>
<path d="M393.435 123.211C393.448 123.408 393.421 123.605 393.355 123.791C393.29 123.977 393.188 124.148 393.054 124.293C392.921 124.439 392.76 124.556 392.58 124.637C392.401 124.719 392.206 124.763 392.009 124.768L303.022 126.605C302.652 126.612 302.293 126.48 302.017 126.234C301.741 125.989 301.569 125.648 301.534 125.281L293.885 45.8922C293.867 45.6953 293.888 45.4966 293.948 45.3081C294.009 45.1196 294.107 44.9453 294.236 44.7958C294.366 44.6463 294.525 44.5246 294.703 44.4381C294.882 44.3517 295.076 44.3023 295.273 44.2929L383.586 39.9078L384.536 39.8603C384.914 39.8404 385.285 39.9679 385.571 40.2158C385.856 40.4637 386.034 40.8127 386.067 41.1891L393.435 123.211Z" fill="#65617D"/>
<path d="M298.967 48.958L379.621 45L386.433 117.137L306.416 119.035L298.967 48.958Z" fill="#6C63FF"/>
<path opacity="0.1" d="M393.435 123.211C393.448 123.408 393.421 123.605 393.355 123.791C393.29 123.977 393.188 124.148 393.054 124.293C392.921 124.439 392.76 124.556 392.58 124.637C392.401 124.719 392.206 124.763 392.009 124.768L383.586 39.9078L384.536 39.8603C384.914 39.8404 385.285 39.9679 385.571 40.2158C385.856 40.4637 386.034 40.8127 386.067 41.1891L393.435 123.211Z" fill="black"/>
<path opacity="0.1" d="M79.9695 41.3315L69.2407 126.889L67.5912 126.847C67.304 126.84 67.0215 126.773 66.762 126.65C66.5026 126.526 66.272 126.35 66.0854 126.132C65.8988 125.914 65.7604 125.659 65.6791 125.384C65.5978 125.109 65.5755 124.82 65.6137 124.536L77.7971 43.059C77.8747 42.5508 78.1416 42.0906 78.5443 41.7703C78.9471 41.4501 79.4561 41.2933 79.9695 41.3315Z" fill="black"/>
<path opacity="0.1" d="M109.618 145.417H100.586V153.523H109.618V145.417Z" fill="black"/>
<path opacity="0.1" d="M141.704 229.532V231.891L119.282 232.489V229.532H141.704Z" fill="black"/>
<path d="M181.278 148.241V228.066C181.272 228.553 181.079 229.02 180.738 229.369C180.398 229.717 179.935 229.922 179.448 229.941L88.3453 232.361H88.3216C87.8255 232.355 87.3515 232.155 87.0007 231.805C86.6499 231.455 86.4501 230.982 86.4439 230.486V148.241C86.4501 147.746 86.6499 147.272 87.0007 146.922C87.3515 146.572 87.8255 146.372 88.3216 146.366H179.4C179.896 146.372 180.37 146.572 180.721 146.922C181.072 147.272 181.272 147.746 181.278 148.241Z" fill="#65617D"/>
<path opacity="0.1" d="M88.3453 146.366V232.361H88.3216C87.8255 232.355 87.3515 232.155 87.0007 231.805C86.6499 231.455 86.4501 230.982 86.4439 230.486V148.241C86.4501 147.746 86.6499 147.272 87.0007 146.922C87.3515 146.572 87.8255 146.372 88.3216 146.366H88.3453Z" fill="black"/>
<path d="M92.5047 151.463H176.881V221.82L92.5047 223.719V151.463Z" fill="#D4DFEC"/>
<path opacity="0.1" d="M352.683 145.417H343.651V153.684H352.683V145.417Z" fill="black"/>
<path opacity="0.1" d="M345.158 229.532V232.574L322.735 231.976V229.532H345.158Z" fill="black"/>
<path d="M374.749 148.241V230.486C374.742 230.986 374.539 231.462 374.183 231.813C373.828 232.164 373.347 232.361 372.847 232.361L281.726 229.941C281.238 229.922 280.776 229.717 280.435 229.369C280.095 229.02 279.901 228.553 279.896 228.066V148.241C279.902 147.746 280.102 147.272 280.452 146.922C280.803 146.572 281.277 146.372 281.773 146.366H372.852C373.351 146.368 373.83 146.565 374.185 146.916C374.54 147.266 374.742 147.742 374.749 148.241Z" fill="#65617D"/>
<path opacity="0.1" d="M374.749 148.241V230.486C374.742 230.986 374.539 231.462 374.183 231.813C373.828 232.164 373.347 232.361 372.847 232.361V146.366C373.347 146.366 373.828 146.563 374.183 146.914C374.539 147.265 374.742 147.742 374.749 148.241Z" fill="black"/>
<path d="M368.688 151.463H284.312V221.82L368.688 223.719V151.463Z" fill="#D4DFEC"/>
<path d="M277.538 148.241V228.066C277.532 228.553 277.339 229.02 276.998 229.369C276.658 229.717 276.196 229.922 275.708 229.941L184.605 232.361C184.105 232.361 183.625 232.164 183.269 231.813C182.913 231.462 182.71 230.986 182.704 230.486V148.241C182.71 147.746 182.91 147.272 183.261 146.922C183.612 146.572 184.086 146.372 184.582 146.366H275.66C276.156 146.372 276.63 146.572 276.981 146.922C277.332 147.272 277.532 147.746 277.538 148.241Z" fill="#65617D"/>
<path d="M188.765 151.463H273.141V221.82L188.765 223.719V151.463Z" fill="#D4DFEC"/>
<path opacity="0.1" d="M410.282 253.262V259.431L338.065 260.096L337.295 260.11L309.848 260.361L309.192 260.371L300.85 260.442H300.602L249.748 260.912L166.271 261.685H166.2L144.975 261.885L144.747 261.89L50.4355 262.753V255.635L146.7 255.003H146.928L166.413 254.87H166.504L301.068 253.983H301.206L301.287 253.978H301.51L303.787 253.964H304.481L339.891 253.727L341.982 253.717L342.448 253.712L410.282 253.262Z" fill="black"/>
<path d="M231.623 153.523C245.099 153.523 256.023 142.617 256.023 129.163C256.023 115.709 245.099 104.802 231.623 104.802C218.147 104.802 207.223 115.709 207.223 129.163C207.223 142.617 218.147 153.523 231.623 153.523Z" fill="#FBBEBE"/>
<path d="M256.028 178.994C256.028 178.994 208.73 184.689 213.246 178.994C214.881 176.934 215.333 170.831 215.242 163.878C215.214 161.767 215.138 159.579 215.028 157.4C214.505 146.96 213.246 136.756 213.246 136.756C213.246 136.756 254.602 117.298 249.848 132.722C247.947 138.953 248.57 147.705 250.015 155.92C250.438 158.316 250.927 160.666 251.441 162.896C252.694 168.337 254.225 173.71 256.028 178.994Z" fill="#FBBEBE"/>
<path opacity="0.1" d="M256.028 178.994C256.028 178.994 208.73 184.689 213.246 178.994C214.881 176.934 215.333 170.831 215.242 163.878C222.453 160.803 231.628 163.095 231.628 163.095C241.287 161.173 247.481 161.548 251.441 162.896C252.694 168.337 254.225 173.71 256.028 178.994Z" fill="black"/>
<path d="M166.252 262.222V261.823L249.734 260.917L300.598 260.442H300.74L300.688 261.144L300.759 260.442H300.849V260.361L301.501 253.978L301.748 251.563L301.824 250.808L301.89 250.177L304.828 240.396L307.766 230.629L310.238 222.404L314.012 209.837C314.012 209.837 311.873 204.854 310.685 203.43C309.496 202.007 308.308 192.278 308.308 192.278C308.308 192.278 298.164 182.629 293.729 181.519C291.87 181.044 288.2 180.413 284.302 179.62C282.843 179.326 281.345 179.013 279.905 178.671C279.092 178.486 278.294 178.292 277.528 178.097C276.039 177.726 274.571 177.272 273.131 176.74C272.377 176.466 271.658 176.101 270.992 175.653C267.498 173.095 258.742 172.805 258.405 172.805C258.404 172.794 258.404 172.783 258.405 172.772V172.729C258.417 172.53 258.417 172.331 258.405 172.131C258.405 171.942 258.405 171.719 258.362 171.467C258.362 171.391 258.362 171.31 258.329 171.23C258.305 171.059 258.276 170.879 258.234 170.689C258.219 170.604 258.2 170.52 258.177 170.437C258.039 169.865 257.84 169.31 257.582 168.781C257.549 168.705 257.506 168.624 257.468 168.548C257.235 168.11 256.965 167.692 256.66 167.3C256.598 167.22 256.532 167.134 256.46 167.053C256.071 166.595 255.638 166.175 255.168 165.801C255.039 165.701 254.906 165.596 254.768 165.502C254.691 165.439 254.61 165.382 254.526 165.331L254.103 165.055L253.708 164.828C253.361 164.638 252.995 164.453 252.596 164.277C252.472 164.22 252.339 164.168 252.206 164.116C252.073 164.064 251.864 163.983 251.688 163.916H251.659L251.303 163.774C251.032 163.684 250.756 163.603 250.466 163.523L250.024 163.409L249.549 163.299L249.073 163.2C248.598 163.105 248.089 163.019 247.557 162.953L247.015 162.887L246.459 162.83L245.884 162.782L245.066 162.735L244.115 162.702C239.922 162.701 235.741 163.145 231.642 164.026C228.794 163.393 225.878 163.125 222.962 163.228H222.548L222.073 163.257H221.769L221.156 163.314C220.951 163.314 220.742 163.356 220.538 163.385C220.333 163.413 220.119 163.437 219.915 163.47L219.601 163.523C219.292 163.575 218.979 163.632 218.651 163.698C218.546 163.717 218.441 163.741 218.337 163.769C217.923 163.859 217.51 163.969 217.101 164.092C216.896 164.149 216.692 164.215 216.488 164.287C216.383 164.315 216.283 164.353 216.183 164.391L215.879 164.5L215.58 164.619L215.223 164.761C215.043 164.837 214.867 164.918 214.691 165.003C214.591 165.046 214.491 165.093 214.396 165.146C214.301 165.198 214.201 165.241 214.111 165.293C213.036 165.847 212.043 166.547 211.159 167.371L210.916 167.604L210.679 167.846C210.598 167.927 210.522 168.012 210.446 168.098C210.136 168.436 209.847 168.792 209.581 169.165C209.505 169.265 209.433 169.365 209.362 169.469C209.06 169.913 208.787 170.376 208.544 170.855C208.483 170.969 208.426 171.087 208.369 171.201C207.981 172.003 207.663 172.837 207.418 173.693C207.329 174.009 207.248 174.326 207.175 174.642C207.175 174.642 197.112 179.075 188.765 182.283C186.545 183.137 184.453 183.911 182.704 184.494C182.195 184.665 181.72 184.822 181.278 184.969C180.319 185.315 179.321 185.545 178.307 185.652C177.829 185.66 177.352 185.705 176.881 185.785C173.045 186.407 166.47 189.107 165.753 191.817C165.694 192.034 165.678 192.259 165.705 192.482C165.705 192.482 165.705 192.515 165.705 192.534C166.18 195.856 162.853 195.381 162.853 195.381C162.853 195.381 161.665 204.161 160.001 206.534C158.798 208.243 157.976 212.053 157.871 214.929C157.811 215.825 157.882 216.725 158.08 217.601C158.08 217.625 158.08 217.649 158.08 217.668C158.271 218.304 157.814 220.041 157.039 222.267C156.198 224.711 154.972 227.748 153.793 230.614C152.015 234.943 150.342 238.872 150.237 239.736C150.194 240.12 150.071 240.808 149.899 241.696C149.205 245.312 147.665 252.199 146.905 254.984C146.339 257.063 145.517 259.91 144.951 261.866C144.951 261.923 144.918 261.98 144.903 262.032L166.214 261.823V262.222H166.28H166.252Z" fill="#6C63FF"/>
<path opacity="0.1" d="M174.029 206.283C174.029 206.283 201.124 220.283 210.869 218.622L174.029 206.283Z" fill="black"/>
<path opacity="0.1" d="M229.17 200.588C229.17 200.588 255.553 209.13 264.347 210.316C273.141 211.503 229.17 200.588 229.17 200.588Z" fill="black"/>
<path opacity="0.1" d="M258.433 173.1C244.648 175.634 218.693 175.088 207.475 174.704C211.587 159.992 231.637 164.994 231.637 164.994C256.456 160.049 258.357 170.309 258.433 173.1Z" fill="black"/>
<path d="M258.433 172.15C244.648 174.685 218.693 174.139 207.475 173.755C211.587 159.042 231.637 164.045 231.637 164.045C256.456 159.099 258.357 169.36 258.433 172.15Z" fill="#6C63FF"/>
<path d="M331.61 237.012C331.61 237.012 347.848 234.52 348.167 241.639C348.485 248.758 339.886 253.731 339.886 253.731L331.61 237.012Z" fill="#FBBEBE"/>
<path opacity="0.1" d="M250.015 155.92C249.316 156.231 248.602 156.507 247.876 156.746C242.751 158.511 237.584 160.291 232.189 160.936C226.793 161.582 221.132 161.012 216.426 158.326C215.932 158.047 215.455 157.738 215 157.4C214.477 146.96 213.217 136.756 213.217 136.756C213.217 136.756 254.573 117.298 249.82 132.722C247.928 138.953 248.57 147.705 250.015 155.92Z" fill="black"/>
<path d="M224.93 91.0868C224.252 91.2657 223.541 91.2838 222.854 91.1396C222.167 90.9954 221.524 90.6929 220.975 90.2563L221.964 91.6279C221.381 91.695 220.791 91.6342 220.234 91.4498C219.677 91.2653 219.168 90.9617 218.741 90.5601C218.651 91.7878 218.702 93.0218 218.893 94.2381C217.257 94.3169 215.646 93.8122 214.349 92.8143C214.323 93.2425 214.43 93.6681 214.654 94.0338C214.879 94.3995 215.21 94.6878 215.603 94.8598C213.96 94.6638 212.301 95.0714 210.937 96.0067C209.572 96.942 208.595 98.3409 208.188 99.9426L210.669 100.17C208.719 100.586 206.969 101.652 205.707 103.193C204.946 104.143 204.366 105.358 204.699 106.516C205.031 107.674 206.638 108.414 207.513 107.588C206.269 109.071 205.364 110.807 204.863 112.675C204.363 114.544 204.277 116.499 204.613 118.404C204.839 119.216 204.913 120.062 204.832 120.9C204.675 121.683 204.181 122.362 203.933 123.126C203.458 124.512 203.91 126.016 204.333 127.397L206.562 134.715C207.37 137.359 208.174 140.007 209.229 142.565C209.976 144.182 210.611 145.849 211.13 147.553C211.729 149.85 211.753 152.365 213.032 154.373C213.908 155.636 215.08 156.667 216.445 157.377C221.146 160.063 226.827 160.632 232.208 159.987C237.589 159.341 242.751 157.562 247.871 155.796C249.008 155.454 250.1 154.976 251.122 154.373C254.664 152.057 255.453 147.32 256.113 143.149C256.85 138.498 257.834 133.856 259.579 129.481C260.615 126.875 261.956 124.232 261.727 121.441C261.437 117.735 258.5 114.731 257.772 111.086C257.529 109.867 257.54 108.612 257.806 107.398C258.031 106.675 258.158 105.925 258.181 105.168C258.1 103.64 256.846 102.463 255.667 101.48C253.109 99.3478 250.469 97.3324 247.747 95.434C247.609 94.4849 248.902 94.0767 249.487 93.3269C250.314 92.2685 249.458 90.5885 248.204 90.095C246.949 89.6014 245.542 89.9241 244.234 90.2516C244.319 89.5835 244.186 88.9059 243.855 88.3195C243.523 87.733 243.011 87.269 242.394 86.9966C241.777 86.7241 241.089 86.6577 240.431 86.8072C239.774 86.9567 239.182 87.3142 238.744 87.8264C238.397 87.0317 237.842 86.3446 237.138 85.837C236.434 85.3295 235.606 85.02 234.741 84.941C231.59 84.6942 231.528 87.1003 229.512 88.4244C227.497 89.7485 225.833 88.002 224.283 86.7302C223.999 87.4491 223.909 88.2302 224.022 88.995C224.136 89.7597 224.449 90.4812 224.93 91.0868Z" fill="#3F3D56"/>
<path d="M343.651 251.249C343.651 251.249 343.228 252.255 342.448 253.712C341.269 255.954 339.833 258.051 338.17 259.963L338.041 260.1H337.271L309.824 260.352H309.168L309.087 260.257L303.763 253.95L301.757 251.572L301.677 251.472L301.505 251.273L301.41 251.159L301.287 251.012L297.384 246.39L298.81 240.457L301.239 230.463L301.301 230.221L301.776 228.322L302.114 226.898L303.245 222.257L307.124 206.287L314.017 209.847L321.285 222.66L325.188 229.542H327.327C327.731 229.542 328.658 230.32 329.59 231.217C329.922 231.535 330.255 231.872 330.54 232.166C331.386 233.04 332.057 233.789 332.057 233.789C332.057 233.789 335.522 233.865 336.454 236.589C336.502 236.721 336.542 236.856 336.573 236.993C336.882 238.064 337.284 239.105 337.775 240.106C338.388 241.44 339.159 242.954 339.938 244.468C341.388 247.244 342.862 249.887 343.403 250.846L343.47 250.965L343.651 251.249Z" fill="#6C63FF"/>
<path opacity="0.1" d="M302.817 229.822L302.77 230.501V230.548L302.689 231.64L302.057 240.424L301.292 251.007L301.073 253.988L300.598 260.366V260.447L249.734 260.921L166.266 261.823V262.222H166.199V261.823V261.69L166.413 254.875L166.822 241.558L167.174 230.268L167.207 229.143C167.228 228.464 167.387 227.797 167.675 227.181C167.963 226.566 168.373 226.016 168.881 225.564C169.39 225.112 169.984 224.769 170.63 224.554C171.275 224.34 171.958 224.259 172.636 224.317C174.88 224.507 177.793 224.739 181.278 224.986L182.704 225.09C202.826 226.486 240.013 228.289 277.538 226.039C278.327 225.997 279.121 225.949 279.915 225.892C285.733 225.527 291.547 225.057 297.303 224.469C298.031 224.392 298.767 224.477 299.458 224.715C300.15 224.953 300.781 225.34 301.307 225.848C301.832 226.356 302.24 226.973 302.501 227.656C302.762 228.338 302.87 229.07 302.817 229.798V229.822Z" fill="black"/>
<path d="M166.252 262.222V261.823L249.734 260.917L300.597 260.442H300.74V260.361L301.215 253.983L301.42 251.135L302.199 240.405L302.813 231.91V231.701C302.841 231.31 302.823 230.916 302.76 230.529C302.763 230.513 302.763 230.497 302.76 230.482C302.63 229.681 302.303 228.924 301.81 228.279C301.286 227.609 300.6 227.083 299.817 226.751C299.034 226.419 298.178 226.292 297.332 226.381C291.575 226.97 285.762 227.439 279.943 227.805C279.149 227.862 278.355 227.909 277.566 227.952C240.042 230.178 202.854 228.374 182.732 227.003L181.306 226.898C177.822 226.652 174.908 226.424 172.664 226.229C171.43 226.125 170.201 226.481 169.214 227.229C168.228 227.977 167.553 229.063 167.321 230.277C167.273 230.534 167.245 230.795 167.236 231.056L166.913 241.573L166.47 254.894L166.261 261.709V261.842V262.241L166.252 262.222Z" fill="#3F3D56"/>
<path opacity="0.1" d="M302.96 233.149L302.375 240.424L301.505 251.268L301.287 253.983L300.811 260.062L300.783 260.366V260.447L300.712 261.149L300.764 260.447H300.626L249.763 260.921L166.266 261.823V261.69L166.499 254.875L166.974 241.558L167.279 232.707C167.294 232.204 167.434 231.712 167.689 231.277C167.943 230.842 168.302 230.477 168.733 230.216C169.271 229.886 169.901 229.737 170.53 229.789C171.528 229.869 172.755 229.964 174.186 230.069C176.51 230.239 179.376 230.439 182.713 230.648C188.893 231.037 196.646 231.454 205.531 231.796C230.249 232.745 263.619 233.063 295.316 230.292C296.742 230.168 298.216 230.031 299.656 229.893C300.226 229.836 300.801 229.945 301.311 230.206C301.455 230.278 301.592 230.364 301.719 230.463C302.133 230.762 302.461 231.164 302.67 231.63C302.719 231.723 302.758 231.82 302.789 231.92C302.932 232.313 302.99 232.732 302.96 233.149Z" fill="black"/>
<path opacity="0.1" d="M141.704 239.646V241.16C141.705 241.71 141.548 242.249 141.254 242.715C140.959 243.18 140.539 243.553 140.041 243.789L120.979 244.154C120.472 243.922 120.042 243.55 119.742 243.081C119.441 242.613 119.281 242.068 119.282 241.511V240.087L141.704 239.646Z" fill="black"/>
<path d="M141.942 244.681L117.104 245.156V241.041L141.942 240.566V244.681Z" fill="#3F3D56"/>
<path opacity="0.1" d="M141.942 244.681L117.104 245.156V241.041L141.942 240.566V244.681Z" fill="black"/>
<path d="M142.893 244.681L118.055 245.156V241.041L142.893 240.566V244.681Z" fill="#3F3D56"/>
<g opacity="0.1">
<path opacity="0.1" d="M225.125 89.5302C224.661 88.9278 224.352 88.2203 224.226 87.4705C224.112 88.2035 224.181 88.9534 224.426 89.6536C224.662 89.6319 224.896 89.5906 225.125 89.5302Z" fill="black"/>
<path opacity="0.1" d="M219.088 92.6815C218.998 92.0997 218.939 91.5135 218.912 90.9255C218.912 91.5092 218.912 92.0977 218.912 92.6862L219.088 92.6815Z" fill="black"/>
<path opacity="0.1" d="M257.83 108.518C257.856 108.095 257.913 107.675 258.001 107.261C258.226 106.539 258.353 105.79 258.381 105.035C258.37 104.865 258.345 104.697 258.305 104.532C258.224 104.968 258.096 105.405 258.001 105.837C257.811 106.717 257.753 107.621 257.83 108.518Z" fill="black"/>
<path opacity="0.1" d="M247.942 93.8537L248.46 94.2286C248.897 93.9131 249.306 93.5606 249.682 93.175C249.861 92.928 249.972 92.6385 250.003 92.3354C250.035 92.0322 249.986 91.7261 249.863 91.4475C249.815 91.5559 249.755 91.6579 249.682 91.7513C249.097 92.5011 247.804 92.914 247.942 93.8537Z" fill="black"/>
<path opacity="0.1" d="M208.882 98.4192C208.709 98.7653 208.57 99.1278 208.468 99.5012C209.212 99.0868 210.013 98.7846 210.845 98.6043L208.882 98.4192Z" fill="black"/>
<path opacity="0.1" d="M215.437 93.2557C215.125 93.0839 214.826 92.8888 214.543 92.6719C214.531 92.8597 214.546 93.0482 214.586 93.2319C214.87 93.2184 215.154 93.2264 215.437 93.2557Z" fill="black"/>
<path opacity="0.1" d="M261.913 121.218C261.718 123.52 260.644 125.736 259.774 127.919C258.029 132.295 257.045 136.936 256.308 141.592C255.648 145.764 254.882 150.5 251.317 152.811C250.298 153.419 249.208 153.897 248.07 154.235C242.946 156.005 237.779 157.78 232.384 158.426C226.988 159.071 221.327 158.506 216.621 155.82C215.256 155.109 214.085 154.078 213.208 152.816C211.938 150.808 211.915 148.293 211.306 145.996C210.787 144.291 210.152 142.622 209.405 141.004C208.354 138.45 207.546 135.783 206.743 133.159C205.998 130.719 205.255 128.278 204.513 125.836C204.269 125.101 204.088 124.347 203.971 123.582C203.786 124.797 204.147 126.068 204.513 127.26C205.255 129.705 205.998 132.146 206.743 134.582C207.546 137.226 208.354 139.874 209.405 142.427C210.152 144.046 210.787 145.714 211.306 147.42C211.905 149.717 211.929 152.232 213.208 154.24C214.085 155.502 215.256 156.533 216.621 157.244C221.327 159.93 227.003 160.495 232.384 159.849C237.765 159.204 242.927 157.429 248.07 155.659C249.208 155.321 250.298 154.843 251.317 154.235C254.859 151.924 255.648 147.187 256.308 143.016C257.045 138.36 258.029 133.719 259.774 129.343C260.81 126.742 262.151 124.099 261.922 121.304C261.922 121.275 261.913 121.247 261.913 121.218Z" fill="black"/>
<path opacity="0.1" d="M205.017 119.382C205.017 119.382 205.017 119.348 205.017 119.329C205.103 118.492 205.029 117.647 204.799 116.838C204.704 116.317 204.642 115.791 204.613 115.262C204.558 116.266 204.621 117.272 204.799 118.262C204.875 118.632 204.96 119.007 205.017 119.382Z" fill="black"/>
<path opacity="0.1" d="M206.467 107.773C206.833 107.16 207.248 106.578 207.708 106.031C206.838 106.862 205.231 106.122 204.894 104.968C204.769 105.435 204.769 105.926 204.894 106.392C205.011 106.74 205.218 107.052 205.494 107.294C205.771 107.537 206.106 107.702 206.467 107.773Z" fill="black"/>
</g>
<path opacity="0.1" d="M325.193 229.537C325.193 229.537 326.699 234.995 325.193 239.741C323.686 244.486 325.193 229.537 325.193 229.537Z" fill="black"/>
<path opacity="0.1" d="M331.61 235.104C331.61 235.104 332.242 242.033 330.816 243.262C329.39 244.491 331.61 235.104 331.61 235.104Z" fill="black"/>
<path d="M94.5916 162.716L142.893 162.241" stroke="#6C63FF" stroke-width="2" stroke-miterlimit="10"/>
<path d="M94.5916 168.634L142.893 168.164" stroke="#6C63FF" stroke-width="2" stroke-miterlimit="10"/>
<path d="M94.5916 174.557L142.893 174.082" stroke="#6C63FF" stroke-width="2" stroke-miterlimit="10"/>
</g>
<defs>
<clipPath id="clip0">
<rect width="495" height="263" fill="white"/>
</clipPath>
</defs>
</svg>
